# xmcd
#
# Track frame offsets:
#  150
#  22365
#  38992
#  63670
#  67940
#
# Disc length: 1174 seconds
#
# Revision: 0
# Processed by: cddbd v1.5.1PL2 Copyright (c) Steve Scherf et al.
# Submitted via: Collectorz.com_Music_Collector 6.11
#
DISCID=46049405
DTITLE=Miller´s Crossing - Like the weather
DYEAR=1900
DGENRE=
TTITLE0=Like the weather
TTITLE1=In the city
TTITLE2=Changes
TTITLE3=Devil´s dance
TTITLE4=Like the weather (Acc.)
EXTD=
EXTT0=
EXTT1=
EXTT2=
EXTT3=
EXTT4=
PLAYORDER=
